<svg width="39" height="40" viewBox="0 0 39 40" fill="none" xmlns="http://www.w3.org/2000/svg">
<g clip-path="url(#clip0_2_48)">
<path d="M37.9026 34.6644L28.8345 25.3128C30.8966 22.1558 31.914 18.2113 31.3693 14.0081C30.4405 6.85893 24.7587 1.04096 17.8193 0.134949C7.50189 -1.21138 -1.17387 7.73549 0.131739 18.3753C1.01053 25.5347 6.65295 31.3988 13.5863 32.3519C17.662 32.9135 21.4878 31.8647 24.5484 29.7378L33.6166 39.0894C34.7999 40.3097 36.7188 40.3097 37.9022 39.0894C39.0845 37.8675 39.0845 35.8831 37.9026 34.6644ZM5.99356 16.2503C5.99356 10.7363 10.3436 6.25034 15.6905 6.25034C21.0375 6.25034 25.3875 10.7363 25.3875 16.2503C25.3875 21.7644 21.0375 26.2503 15.6905 26.2503C10.3436 26.2503 5.99356 21.766 5.99356 16.2503Z" fill="white"/>
</g>
<defs>
<clipPath id="clip0_2_48">
<rect width="38.7879" height="40" fill="white"/>
</clipPath>
</defs>
</svg>
